# xmcd CD database file
#
# Track frame offsets:
#	150
#	35849
#	66686
#	92785
#	133110
#	159580
#	190549
#	200216
#	227301
#	241602
#	250217
#	265236
#	273753
#	290634
#	297271
#
# Disc length: 4395 seconds
#
# Revision: 0
# Processed by: cddbd v1.5.1PL0 Copyright (c) Steve Scherf et al.
# Submitted via: CDex 1.51
#
DISCID=e311290f
DTITLE=Irmaos Vieira - Folia de Reis-Nordeste de Minas
DYEAR=2000
DGENRE=Folk Brasil
TTITLE0=Pedida de folia-toada acostumada
TTITLE1=Saudacao de lapinha-toada urucuiana nova
TTITLE2=Benditotoada de bandito
TTITLE3=Desobriga-toada uracuiana velha
TTITLE4=Levantacao de mastro-toada de levantacao
TTITLE5=Despedida-toada drobadona
TTITLE6=Credo
TTITLE7=A mula baia-Catira: moda de viola e recortado
TTITLE8=Quebra gabiroba
TTITLE9=Carreguei o meu cargueiro
TTITLE10=Baratao
TTITLE11=Coisas que eu nunca vi
TTITLE12=Mane Joaquim
TTITLE13=Papagaio
TTITLE14=Ladainha-Terco cantado
EXTD=YEAR: 2000
EXTT0=
EXTT1=
EXTT2=
EXTT3=
EXTT4=
EXTT5=
EXTT6=
EXTT7=
EXTT8=
EXTT9=
EXTT10=
EXTT11=
EXTT12=
EXTT13=
EXTT14=
PLAYORDER=
